<?xml version="1.0" standalone="no"?>
<!DOCTYPE svg PUBLIC "-//W3C//DTD SVG 20010904//EN"
 "http://www.w3.org/TR/2001/REC-SVG-20010904/DTD/svg10.dtd">
<svg version="1.0" xmlns="http://www.w3.org/2000/svg"
 width="1280.000000pt" height="500.000000pt" viewBox="0 0 1280.000000 500.000000"
 preserveAspectRatio="xMidYMid meet">
<metadata>
Created by potrace 1.16, written by Peter Selinger 2001-2019
</metadata>
<g transform="translate(0.000000,500.000000) scale(0.100000,-0.100000)"
fill="#000000" stroke="none">
<path d="M2075 3939 c-33 -56 -83 -101 -138 -124 -19 -8 -88 -24 -153 -35 -77
-14 -141 -32 -182 -52 -83 -39 -196 -146 -246 -232 -32 -55 -43 -66 -65 -66
-86 0 -266 -100 -341 -189 -22 -27 -64 -96 -92 -153 -78 -155 -132 -202 -271
-232 l-28 -7 40 -47 c75 -89 92 -166 67 -310 -30 -171 -17 -272 49 -407 19
-38 54 -92 78 -120 l44 -49 -5 -96 c-9 -180 46 -315 186 -462 122 -128 137
-158 137 -274 l0 -91 50 26 c41 21 64 26 126 26 72 0 80 -2 200 -62 97 -49
141 -65 202 -75 98 -15 208 -1 300 38 34 14 69 26 77 26 8 0 43 -12 77 -26 92
-39 202 -53 300 -38 61 10 105 26 202 75 120 60 128 62 200 62 61 0 86 -5 126
-25 l50 -25 0 90 c0 115 15 144 139 275 142 150 191 271 184 461 l-3 95 43 50
c23 27 58 81 77 119 66 134 78 233 49 413 -23 143 -5 220 72 311 l35 40 -28 7
c-140 31 -194 77 -271 234 -28 58 -70 126 -92 152 -77 89 -256 188 -342 188
-23 0 -32 8 -52 48 -50 99 -154 200 -261 252 -41 21 -98 37 -179 50 -65 11
-138 29 -161 39 -49 22 -112 82 -140 135 -11 20 -22 36 -25 36 -3 0 -18 -23
-35 -51z m33 -452 c3 -71 1 -78 -15 -75 -12 2 -20 16 -24 38 -5 27 -7 29 -8
10 -4 -64 -47 -67 -67 -5 l-12 40 -1 -47 c-1 -34 -5 -48 -15 -48 -18 0 -26 31
-26 103 0 56 1 57 28 57 25 0 30 -6 43 -47 l15 -48 13 53 c12 49 15 53 40 50
25 -3 26 -5 29 -81z m713 -203 c17 -16 17 -18 -1 -55 -11 -21 -20 -41 -20 -44
0 -3 19 6 41 21 41 26 42 26 61 6 19 -19 19 -20 -33 -76 -42 -46 -54 -54 -66
-45 -12 10 -9 18 19 47 33 35 27 35 -25 -1 -26 -18 -30 -18 -44 -4 -14 14 -14
19 6 50 29 47 26 53 -7 16 -26 -29 -52 -33 -52 -9 0 9 89 110 98 110 3 0 13
-7 23 -16z m-239 -166 c-4 -40 -11 -48 -37 -48 -20 0 -27 -6 -32 -31 -10 -53
-83 -61 -83 -8 0 10 4 20 8 23 5 3 7 19 4 35 -4 26 0 32 24 42 16 6 40 17 54
25 33 17 66 -3 62 -38z m-798 23 c3 -5 0 -11 -8 -14 -8 -3 -33 -30 -55 -60
-34 -46 -49 -58 -93 -72 -29 -9 -63 -28 -76 -42 -34 -37 -19 -40 25 -4 21 17
49 31 63 31 14 0 36 7 48 16 31 21 36 13 19 -29 -17 -39 -51 -67 -82 -67 -53
0 -127 -32 -166 -72 -49 -51 -42 -65 9 -16 27 27 50 39 88 46 48 8 51 7 46
-10 -7 -29 -63 -66 -133 -89 -36 -11 -74 -31 -86 -45 -35 -39 -27 -50 11 -16
19 17 49 33 68 37 18 4 46 14 62 22 26 14 28 14 22 -2 -3 -9 -6 -21 -6 -25 0
-26 -71 -86 -135 -115 -73 -33 -84 -46 -100 -116 -7 -30 12 -50 21 -22 20 65
35 83 93 112 l59 31 -7 -28 c-13 -45 -47 -106 -71 -127 -44 -38 -80 -107 -80
-149 0 -60 17 -80 25 -30 12 71 25 100 60 134 19 19 37 31 40 28 13 -13 -18
-146 -46 -195 -32 -58 -37 -109 -14 -158 13 -29 13 -29 14 30 1 51 6 70 35
114 l33 53 7 -32 c11 -58 6 -176 -9 -220 -19 -55 -19 -73 3 -100 17 -21 17
-20 17 44 0 48 4 70 17 82 15 16 18 13 41 -32 19 -38 26 -69 29 -139 5 -103
20 -140 73 -181 51 -38 55 -22 8 29 -44 47 -60 101 -48 157 l6 29 49 -55 c31
-35 59 -81 75 -124 19 -51 39 -80 75 -114 27 -25 53 -46 59 -46 5 0 16 -3 25
-6 33 -12 15 16 -21 35 -21 10 -48 30 -60 43 -23 25 -56 98 -48 106 8 8 105
-39 138 -67 15 -13 44 -49 64 -80 45 -72 78 -107 130 -141 l42 -27 -25 -12
c-22 -10 -34 -8 -82 15 -44 21 -79 28 -159 34 -112 8 -177 32 -213 77 -11 15
-19 27 -17 29 1 1 49 -6 106 -17 57 -11 105 -18 108 -15 9 8 -45 37 -96 51
-27 7 -83 16 -123 20 -85 8 -134 32 -178 86 -16 21 -30 40 -30 43 0 14 55 4
100 -19 27 -14 55 -25 62 -25 14 1 -42 50 -56 50 -5 0 -47 18 -92 40 -54 26
-92 52 -109 74 -27 36 -70 135 -61 143 10 10 109 -75 152 -130 40 -51 84 -88
84 -72 0 11 -87 129 -112 152 -13 13 -55 44 -93 70 -82 57 -107 95 -103 154
l3 41 48 -42 c26 -23 60 -66 75 -94 22 -42 27 -47 30 -29 5 36 -34 94 -100
148 -75 61 -103 116 -93 181 3 24 10 46 16 49 5 4 9 2 9 -3 0 -5 14 -26 30
-47 17 -21 37 -62 46 -91 18 -62 34 -79 34 -36 0 17 -25 78 -55 137 -49 96
-55 114 -55 169 0 47 6 75 26 115 24 47 28 51 38 35 7 -12 10 -66 9 -139 -1
-101 0 -117 11 -102 21 28 28 110 14 184 -7 37 -13 93 -13 123 0 47 5 63 37
109 34 49 37 52 47 33 18 -34 13 -102 -13 -156 -35 -75 -40 -96 -24 -96 23 0
56 98 63 185 4 44 13 94 20 110 13 31 75 96 75 79 0 -38 -26 -136 -46 -176
-13 -26 -24 -58 -23 -70 2 -52 67 117 84 216 7 41 52 96 79 96 22 0 10 -66
-23 -115 -48 -73 -48 -72 -20 -54 13 8 38 42 54 76 35 71 52 92 80 103 27 12
113 12 119 1z m1224 -42 c12 -19 10 -26 -18 -60 -17 -22 -29 -39 -27 -39 3 0
24 7 48 15 40 15 45 14 56 -2 7 -9 13 -20 13 -25 0 -9 -106 -88 -119 -88 -21
0 -18 30 5 45 32 21 26 29 -11 15 -23 -9 -32 -8 -44 4 -14 14 -12 20 19 53
l35 36 -37 -22 c-35 -21 -58 -21 -58 -1 0 8 109 90 120 90 3 0 11 -10 18 -21z
m-340 -32 c7 -8 8 -25 3 -43 -5 -22 -14 -30 -35 -32 -20 -3 -28 -10 -33 -32
-7 -38 -44 -64 -65 -47 -21 16 -29 45 -17 53 6 3 8 17 5 30 -7 28 23 64 53 64
11 0 23 5 26 10 9 14 51 12 63 -3z m110 -95 c14 -18 16 -36 3 -27 -5 3 -11 -7
-13 -22 -2 -20 -9 -28 -23 -29 -11 -1 -25 -2 -32 -3 -7 -1 -16 -15 -21 -33
-15 -59 -92 -61 -92 -2 0 12 5 26 11 29 6 4 8 14 4 22 -10 27 22 63 55 63 17
0 30 4 30 9 0 24 57 18 78 -7z m-1658 -92 c6 -11 14 -19 18 -18 9 2 62 -13 62
-17 0 -25 -16 -35 -45 -29 -42 8 -57 -21 -20 -38 27 -12 29 -16 16 -36 -6 -10
-22 -6 -74 19 -37 19 -67 38 -67 43 0 5 11 29 25 53 29 48 66 59 85 23z m1750
-25 c19 -22 -14 -88 -40 -80 -21 7 -50 -19 -50 -45 0 -21 -48 -34 -67 -18 -15
12 -17 54 -4 62 5 3 9 18 9 33 0 32 28 56 60 50 12 -2 25 0 28 4 8 14 51 10
64 -6z m71 -156 c12 -19 12 -52 0 -44 -5 3 -13 -4 -16 -15 -5 -17 -12 -20 -35
-15 -22 5 -32 1 -48 -20 -29 -36 -76 -32 -80 6 -2 15 3 33 10 40 7 8 19 27 26
42 11 26 14 27 73 24 38 -2 64 -9 70 -18z m283 -53 c9 -46 8 -50 -18 -72 -33
-29 -86 -32 -108 -6 -14 15 -41 92 -35 98 7 7 115 32 132 31 16 -2 22 -13 29
-51z m-286 -92 c13 -9 26 -13 29 -10 10 9 40 -12 46 -33 2 -10 1 -25 -4 -32
-5 -8 -9 -10 -9 -5 0 4 -9 -2 -19 -15 -16 -19 -22 -22 -32 -11 -19 17 -43 15
-63 -7 -13 -14 -24 -17 -44 -12 -37 10 -41 44 -8 74 14 14 26 29 26 35 0 12
28 31 45 32 6 0 21 -7 33 -16z m-718 -107 c0 -7 -5 -18 -11 -24 -8 -8 -7 -11
6 -10 22 2 46 -33 27 -40 -6 -3 -10 -9 -6 -14 3 -5 -9 -9 -25 -9 -17 0 -31 -5
-31 -11 0 -8 15 -9 47 -4 42 6 46 5 34 -9 -8 -9 -21 -16 -31 -16 -19 0 -70
-36 -70 -50 0 -5 9 -12 20 -15 22 -7 28 -35 7 -35 -20 0 -44 22 -60 52 l-14
28 -24 -26 -24 -25 28 10 c24 9 28 8 42 -18 13 -26 13 -30 0 -35 -11 -4 -15 2
-15 24 l0 29 -37 -21 c-29 -18 -36 -19 -31 -6 5 12 2 14 -13 11 -25 -7 -49 14
-49 43 0 12 -4 26 -10 29 -5 3 -10 22 -10 41 0 19 5 34 10 34 6 0 10 -11 10
-25 0 -33 16 -32 32 2 15 31 48 44 48 19 0 -9 5 -16 10 -16 6 0 10 14 10 30 0
17 5 30 10 30 6 0 10 -9 10 -20 0 -13 5 -18 15 -14 18 7 19 0 5 -27 -13 -24
-9 -24 34 2 37 22 52 57 19 44 -15 -5 -16 -4 -5 6 6 7 12 21 12 31 0 10 7 18
15 18 8 0 15 -6 15 -13z m105 -7 c-3 -5 0 -10 7 -10 10 0 10 -2 -1 -9 -26 -17
42 -21 94 -7 28 8 44 15 38 15 -18 1 -16 21 2 21 8 0 15 -4 15 -10 0 -5 14
-10 30 -10 61 0 27 -18 -57 -31 -49 -7 -81 -15 -73 -16 9 -2 57 3 108 10 74
11 96 11 109 1 15 -10 10 -13 -37 -18 -30 -3 -77 -8 -105 -9 -27 -2 16 -4 97
-5 135 -2 182 -10 142 -26 -20 -8 -171 -6 -294 4 -74 5 -84 7 -45 10 l50 3
-50 7 c-28 4 -39 8 -25 9 l25 3 -25 8 c-21 7 -22 8 -5 10 18 1 18 2 -3 11 -13
5 -20 13 -17 19 3 5 0 10 -7 10 -9 0 -9 3 2 10 20 13 33 13 25 0z m-523 -26
c62 -16 146 -10 103 7 -13 5 -15 8 -5 8 8 0 22 -4 30 -9 10 -6 11 -10 3 -10
-7 0 -12 -6 -10 -12 1 -8 -11 -15 -28 -17 l-30 -4 30 -7 c25 -6 19 -8 -30 -11
l-60 -2 65 -6 c59 -6 53 -7 -70 -14 -155 -10 -260 -6 -260 8 0 6 54 12 132 15
102 5 116 7 58 9 -41 1 -84 6 -95 11 -41 16 35 23 127 10 49 -6 91 -10 94 -8
2 3 -34 10 -81 17 -47 7 -82 17 -79 22 8 13 38 11 106 -7z m1168 -34 c6 -11
20 -20 31 -20 11 0 23 -9 28 -22 9 -26 2 -70 -11 -62 -5 3 -18 -2 -29 -12 -20
-18 -21 -18 -39 6 -19 25 -20 25 -50 8 -29 -16 -33 -16 -56 -2 -13 9 -24 22
-24 28 0 19 30 56 45 56 8 0 19 9 25 20 7 13 21 20 40 20 19 0 33 -7 40 -20z
m-28 -167 c10 -9 18 -21 18 -27 0 -6 10 -16 23 -21 26 -12 33 -45 17 -76 -9
-16 -14 -18 -20 -9 -5 9 -9 9 -14 1 -12 -18 -43 -12 -49 9 -6 22 -28 26 -59 9
-16 -9 -24 -7 -39 10 -10 11 -19 26 -19 33 0 23 31 59 48 56 9 -2 25 5 34 14
22 22 36 23 60 1z m-1855 -20 c4 -11 -5 -27 -33 -50 l-39 -33 43 6 c38 6 42 5
42 -14 0 -21 -10 -25 -101 -38 -39 -5 -47 -3 -53 13 -6 14 3 27 35 54 l42 37
-42 -8 c-33 -6 -44 -4 -48 7 -8 20 6 31 47 36 79 9 101 7 107 -10z m1801 -155
c7 -7 12 -21 12 -33 0 -11 9 -26 20 -33 42 -26 13 -88 -41 -87 -27 0 -34 5
-39 25 -5 20 -13 26 -40 28 -35 4 -59 25 -60 53 0 23 36 52 59 46 10 -2 25 -1
32 4 20 12 43 11 57 -3z m-165 -155 c4 -4 24 -7 45 -7 35 -1 37 -3 40 -36 2
-19 8 -39 13 -44 16 -17 10 -62 -12 -82 -16 -14 -23 -15 -26 -6 -3 6 -15 12
-28 12 -19 0 -24 6 -27 32 -2 28 -8 34 -32 38 -39 7 -56 52 -30 81 17 19 45
25 57 12z m-86 -117 c4 -8 19 -16 32 -18 35 -5 48 -31 35 -66 -6 -16 -8 -36
-4 -43 13 -23 -6 -56 -39 -67 -23 -8 -29 -8 -25 2 3 8 -4 16 -15 19 -17 4 -20
12 -18 43 2 32 -2 41 -20 49 -26 11 -32 62 -11 83 16 16 55 15 65 -2z m-131
-81 c15 -14 31 -25 36 -25 4 0 13 -11 20 -25 9 -19 8 -29 -5 -48 -9 -14 -14
-33 -11 -44 6 -22 -22 -59 -52 -67 -14 -4 -30 1 -45 13 -21 17 -22 22 -11 40
17 29 15 45 -8 66 -28 25 -27 79 2 99 31 22 43 20 74 -9z m-783 -360 c20 -8
39 -20 42 -25 11 -18 -4 -58 -24 -65 -17 -5 -18 -10 -10 -38 12 -43 12 -46
-10 -40 -12 3 -21 17 -25 38 -4 18 -13 38 -20 44 -11 9 -16 5 -24 -19 -11 -29
-26 -38 -36 -21 -9 13 45 141 59 141 7 0 29 -7 48 -15z m842 -5 c3 -11 4 -29
0 -39 -4 -14 3 -25 26 -42 28 -19 29 -23 14 -32 -13 -7 -25 -4 -46 12 -15 12
-35 21 -44 21 -16 0 -15 -10 3 -59 3 -8 -1 -12 -12 -10 -16 4 -66 104 -66 131
0 13 60 37 92 38 18 0 29 -6 33 -20z"/>
<path d="M11425 3659 c-556 -53 -936 -301 -1037 -676 -15 -58 -21 -109 -21
-203 -1 -111 2 -134 26 -203 50 -144 141 -254 292 -352 107 -70 155 -94 374
-182 266 -107 373 -164 447 -238 87 -86 104 -152 62 -235 -41 -81 -161 -146
-323 -177 -104 -20 -408 -13 -505 11 -74 19 -265 108 -337 157 -26 18 -69 53
-95 77 l-46 43 -6 -28 c-3 -15 -24 -165 -47 -332 -34 -251 -39 -305 -28 -312
61 -39 294 -100 474 -125 195 -26 553 -24 742 5 303 46 520 137 680 285 168
156 246 342 247 591 1 186 -46 306 -168 430 -109 111 -257 196 -549 316 -314
129 -446 211 -488 304 -64 141 56 284 287 342 107 27 376 24 514 -6 180 -38
255 -83 336 -201 26 -38 49 -68 51 -66 6 6 93 623 93 658 0 29 -11 33 -165 71
-200 50 -557 70 -810 46z"/>
<path d="M4150 3620 c1 -3 33 -20 73 -38 90 -41 162 -93 187 -135 45 -73 46
-63 -35 -777 -82 -730 -91 -888 -60 -1063 33 -191 115 -349 242 -467 119 -111
255 -176 463 -221 94 -21 132 -23 365 -23 280 -1 350 7 532 60 109 31 275 109
357 168 236 169 399 444 466 791 11 59 58 447 105 863 47 416 88 776 91 800
l6 42 -341 0 c-289 0 -341 -2 -341 -14 0 -52 -183 -1626 -196 -1686 -71 -329
-274 -500 -593 -500 -190 0 -329 58 -405 169 -54 77 -78 164 -83 296 -4 105 7
224 87 924 50 442 89 805 88 806 -5 6 -1008 10 -1008 5z"/>
<path d="M7175 3598 c-2 -13 -83 -608 -180 -1323 -96 -715 -177 -1312 -180
-1327 l-4 -28 322 0 322 0 104 767 c57 423 106 773 110 780 3 6 84 -338 180
-765 95 -427 175 -779 176 -780 2 -2 163 -1 357 3 l354 8 334 693 c184 381
336 692 337 690 2 -1 -40 -306 -92 -676 -52 -371 -95 -685 -95 -697 l0 -23
333 0 332 0 179 1323 c98 727 181 1334 183 1350 l6 27 -439 0 -439 0 -402
-838 c-221 -460 -409 -857 -418 -881 -19 -56 -19 -156 0 -212 l16 -44 -36 35
c-64 62 -78 108 -185 620 -55 267 -140 672 -188 900 l-87 415 -447 3 -448 2
-5 -22z"/>
</g>
</svg>
